# xmcd
#
# Track frame offsets: 
#        150
#        20992
#        37795
#        56200
#        76537
#        93772
#        111597
#        130690
#        152797
#        171709
#        188462
#        219100
#        239952
#        253432
#        278037
#        298635
#        317870
#
# Disc length: 4481 seconds
#
# Revision: 0
# Processed by: cddbd v1.5.2PL0 Copyright (c) Steve Scherf et al.
# Submitted via: ExactAudioCopy v0.99pb5
#
DISCID=f9117f11
DTITLE=Piet Veerman - The Very Best Of
DYEAR=2005
DGENRE=Pop
TTITLE0=Sailin' home
TTITLE1=Mexican girl
TTITLE2=Whenever you need me
TTITLE3=Starry night
TTITLE4=Vaya con dios
TTITLE5=Boy from nowhere
TTITLE6=Hard way of livin'
TTITLE7=A new tomorrow
TTITLE8=Dream away
TTITLE9=Think about the good times
TTITLE10=Ave Maria
TTITLE11=Walking together
TTITLE12=On my own
TTITLE13=Beyond all time
TTITLE14=Go on home
TTITLE15=Call on me
TTITLE16=Be my light
EXTD=
EXTT0=
EXTT1=
EXTT2=
EXTT3=
EXTT4=
EXTT5=
EXTT6=
EXTT7=
EXTT8=
EXTT9=
EXTT10=
EXTT11=
EXTT12=
EXTT13=
EXTT14=
EXTT15=
EXTT16=
PLAYORDER=
